<?xml version="1.0" encoding="UTF-8"?> <!-- Generator: Adobe Illustrator 23.0.2, SVG Export Plug-In . SVG Version: 6.00 Build 0) --> <svg xmlns="http://www.w3.org/2000/svg" xmlns:xlink="http://www.w3.org/1999/xlink" id="Layer_1" x="0px" y="0px" viewBox="0 0 192.4 192.4" style="enable-background:new 0 0 192.4 192.4;" xml:space="preserve"> <style type="text/css"> .st0{fill:#FFFFFF;} </style> <path class="st0" d="M127.6,82.5H48.9c-6.1,0-11-4.9-11-11V37.6c0-6.1,4.9-11,11-11h78.7c6.1,0,11,4.9,11,11v33.9 C138.6,77.5,133.7,82.5,127.6,82.5z M48.9,31.5c-3.3,0-6,2.7-6,6v33.9c0,3.3,2.7,6,6,6h78.7c3.3,0,6-2.7,6-6V37.6c0-3.3-2.7-6-6-6 L48.9,31.5L48.9,31.5z"></path> <rect x="34.5" y="98.6" class="st0" width="107.5" height="5"></rect> <rect x="34.5" y="114.3" class="st0" width="107.5" height="5"></rect> <rect x="34.5" y="130" class="st0" width="107.5" height="5"></rect> <rect x="34.5" y="145.8" class="st0" width="107.5" height="5"></rect> </svg> 