<?xml version="1.0" encoding="UTF-8"?> <!-- Generator: Adobe Illustrator 23.0.2, SVG Export Plug-In . SVG Version: 6.00 Build 0) --> <svg xmlns="http://www.w3.org/2000/svg" xmlns:xlink="http://www.w3.org/1999/xlink" id="Layer_1" x="0px" y="0px" viewBox="0 0 192.4 192.4" style="enable-background:new 0 0 192.4 192.4;" xml:space="preserve"> <style type="text/css"> .st0{fill:#FFFFFF;} </style> <path class="st0" d="M137,169.6H47.4c-6.1,0-11-4.9-11-11v-121c0-6.1,4.9-11,11-11H137c6.1,0,11,4.9,11,11v121 C148.1,164.7,143.1,169.6,137,169.6z M47.4,31.5c-3.3,0-6,2.7-6,6v121c0,3.3,2.7,6,6,6H137c3.3,0,6-2.7,6-6v-121c0-3.3-2.7-6-6-6 H47.4z"></path> <rect x="53.6" y="29" class="st0" width="5" height="138.1"></rect> <rect x="77.9" y="52.9" class="st0" width="46.2" height="5"></rect> <rect x="77.9" y="68.1" class="st0" width="46.2" height="5"></rect> </svg> 